<svg xmlns="http://www.w3.org/2000/svg" xmlns:xlink="http://www.w3.org/1999/xlink" width="26" height="30.07" preserveAspectRatio="xMidYMid meet" version="1.1" viewBox="0 0 26 30.07"><defs><path id="axNaRGWbh" d="M0 7.52L0 22.57L13 30.1L26 22.57L26 7.52L13 0L0 7.52Z"/><path id="c1WJD6bRxY" d="M13 23.08C8.57 23.08 4.97 19.48 4.97 15.05C4.97 10.62 8.57 7.02 13 7.02C17.43 7.02 21.03 10.62 21.03 15.05C21.03 19.48 17.43 23.08 13 23.08Z"/><path id="n1TCvSixdp" d="M13 21.74C9.31 21.74 6.31 18.74 6.31 15.05C6.31 11.36 9.31 8.36 13 8.36C16.69 8.36 19.69 11.36 19.69 15.05C19.69 18.74 16.69 21.74 13 21.74Z"/><path id="h52SiI4z0m" d="M19.41 6.18L7.77 24.66L6.59 23.92L18.23 5.44L19.41 6.18Z"/></defs><g><g><g><g><filter id="shadow7776751" width="45" height="49.1" x="-9" y="-9" filterUnits="userSpaceOnUse" primitiveUnits="userSpaceOnUse"><feFlood/><feComposite in2="SourceAlpha" operator="in"/><feGaussianBlur stdDeviation="1"/><feOffset dx="1" dy="1" result="afterOffset"/><feFlood flood-color="#000" flood-opacity=".5"/><feComposite in2="afterOffset" operator="in"/><feMorphology operator="dilate" radius="1"/><feComposite in2="SourceAlpha" operator="out"/></filter><path id="d8Td5EXH6Z" fill="#fff" fill-opacity="1" d="M0 7.52L0 22.57L13 30.1L26 22.57L26 7.52L13 0L0 7.52Z" filter="url(#shadow7776751)"/></g><use fill="#d5d5d5" fill-opacity="1" opacity="1" xlink:href="#axNaRGWbh"/><g><use fill-opacity="0" stroke="#000" stroke-opacity="0" stroke-width="0" opacity="1" xlink:href="#axNaRGWbh"/></g><g><filter id="shadow6295323" width="45" height="49.1" x="-9" y="-9" filterUnits="userSpaceOnUse" primitiveUnits="userSpaceOnUse"><feFlood/><feComposite in2="SourceAlpha" operator="out"/><feGaussianBlur stdDeviation="1"/><feOffset dx="1" dy="1" result="afterOffset"/><feFlood flood-color="#000" flood-opacity=".5"/><feComposite in2="afterOffset" operator="in"/><feMorphology operator="dilate" radius="1"/><feComposite in2="SourceAlpha" operator="in"/></filter><path id="b2Ug3GhFfc" fill="#fff" fill-opacity="1" d="M0 7.52L0 22.57L13 30.1L26 22.57L26 7.52L13 0L0 7.52Z" filter="url(#shadow6295323)"/></g></g><g><g><filter id="shadow15079380" width="35.06" height="35.06" x="-4.03" y="-1.98" filterUnits="userSpaceOnUse" primitiveUnits="userSpaceOnUse"><feFlood/><feComposite in2="SourceAlpha" operator="in"/><feGaussianBlur stdDeviation="1"/><feOffset dx="1" dy="1" result="afterOffset"/><feFlood flood-color="#000" flood-opacity=".5"/><feComposite in2="afterOffset" operator="in"/><feMorphology operator="dilate" radius="1"/><feComposite in2="SourceAlpha" operator="out"/></filter><path id="b2Ni14Hkw" fill="#fff" fill-opacity="1" d="M13 23.08C8.57 23.08 4.97 19.48 4.97 15.05C4.97 10.62 8.57 7.02 13 7.02C17.43 7.02 21.03 10.62 21.03 15.05C21.03 19.48 17.43 23.08 13 23.08Z" filter="url(#shadow15079380)"/></g><use fill="#2e8120" fill-opacity="1" opacity="1" xlink:href="#c1WJD6bRxY"/><g><use fill-opacity="0" stroke="#000" stroke-opacity="0" stroke-width="0" opacity="1" xlink:href="#c1WJD6bRxY"/></g><g><filter id="shadow6997497" width="35.06" height="35.06" x="-4.03" y="-1.98" filterUnits="userSpaceOnUse" primitiveUnits="userSpaceOnUse"><feFlood/><feComposite in2="SourceAlpha" operator="out"/><feGaussianBlur stdDeviation="1"/><feOffset dx="1" dy="1" result="afterOffset"/><feFlood flood-color="#000" flood-opacity=".5"/><feComposite in2="afterOffset" operator="in"/><feMorphology operator="dilate" radius="1"/><feComposite in2="SourceAlpha" operator="in"/></filter><path id="bJYrFf7Wm" fill="#fff" fill-opacity="1" d="M13 23.08C8.57 23.08 4.97 19.48 4.97 15.05C4.97 10.62 8.57 7.02 13 7.02C17.43 7.02 21.03 10.62 21.03 15.05C21.03 19.48 17.43 23.08 13 23.08Z" filter="url(#shadow6997497)"/></g></g><g><g><filter id="shadow13165950" width="32.38" height="32.38" x="-2.69" y="-.64" filterUnits="userSpaceOnUse" primitiveUnits="userSpaceOnUse"><feFlood/><feComposite in2="SourceAlpha" operator="in"/><feGaussianBlur stdDeviation="1"/><feOffset dx="1" dy="1" result="afterOffset"/><feFlood flood-color="#000" flood-opacity=".5"/><feComposite in2="afterOffset" operator="in"/><feMorphology operator="dilate" radius="1"/><feComposite in2="SourceAlpha" operator="out"/></filter><path id="b9gVxiwA" fill="#fff" fill-opacity="1" d="M13 21.74C9.31 21.74 6.31 18.74 6.31 15.05C6.31 11.36 9.31 8.36 13 8.36C16.69 8.36 19.69 11.36 19.69 15.05C19.69 18.74 16.69 21.74 13 21.74Z" filter="url(#shadow13165950)"/></g><use fill="#d5d5d5" fill-opacity="1" opacity="1" xlink:href="#n1TCvSixdp"/><g><use fill-opacity="0" stroke="#000" stroke-opacity="0" stroke-width="0" opacity="1" xlink:href="#n1TCvSixdp"/></g><g><filter id="shadow1360181" width="32.38" height="32.38" x="-2.69" y="-.64" filterUnits="userSpaceOnUse" primitiveUnits="userSpaceOnUse"><feFlood/><feComposite in2="SourceAlpha" operator="out"/><feGaussianBlur stdDeviation="1"/><feOffset dx="1" dy="1" result="afterOffset"/><feFlood flood-color="#000" flood-opacity=".5"/><feComposite in2="afterOffset" operator="in"/><feMorphology operator="dilate" radius="1"/><feComposite in2="SourceAlpha" operator="in"/></filter><path id="b6T5H5Ell" fill="#fff" fill-opacity="1" d="M13 21.74C9.31 21.74 6.31 18.74 6.31 15.05C6.31 11.36 9.31 8.36 13 8.36C16.69 8.36 19.69 11.36 19.69 15.05C19.69 18.74 16.69 21.74 13 21.74Z" filter="url(#shadow1360181)"/></g></g><g><g><filter id="shadow3387564" width="31.81" height="38.22" x="-2.41" y="-3.56" filterUnits="userSpaceOnUse" primitiveUnits="userSpaceOnUse"><feFlood/><feComposite in2="SourceAlpha" operator="in"/><feGaussianBlur stdDeviation="1"/><feOffset dx="1" dy="1" result="afterOffset"/><feFlood flood-color="#000" flood-opacity=".5"/><feComposite in2="afterOffset" operator="in"/><feMorphology operator="dilate" radius="1"/><feComposite in2="SourceAlpha" operator="out"/></filter><path id="c1YmyjHGQ0" fill="#fff" fill-opacity="1" d="M19.41 6.18L7.77 24.66L6.59 23.92L18.23 5.44L19.41 6.18Z" filter="url(#shadow3387564)"/></g><use fill="#2e8120" fill-opacity="1" opacity="1" xlink:href="#h52SiI4z0m"/><g><use fill-opacity="0" stroke="#000" stroke-opacity="0" stroke-width="0" opacity="1" xlink:href="#h52SiI4z0m"/></g><g><filter id="shadow8822574" width="31.81" height="38.22" x="-2.41" y="-3.56" filterUnits="userSpaceOnUse" primitiveUnits="userSpaceOnUse"><feFlood/><feComposite in2="SourceAlpha" operator="out"/><feGaussianBlur stdDeviation="1"/><feOffset dx="1" dy="1" result="afterOffset"/><feFlood flood-color="#000" flood-opacity=".5"/><feComposite in2="afterOffset" operator="in"/><feMorphology operator="dilate" radius="1"/><feComposite in2="SourceAlpha" operator="in"/></filter><path id="a4g9BkJyVl" fill="#fff" fill-opacity="1" d="M19.41 6.18L7.77 24.66L6.59 23.92L18.23 5.44L19.41 6.18Z" filter="url(#shadow8822574)"/></g></g></g></g></svg>